<?xml version="1.0" encoding="UTF-8"?>
<svg id="Layer_2" data-name="Layer 2" xmlns="http://www.w3.org/2000/svg" viewBox="0 0 710.58 20.34">
  <defs>
    <style>
      .cls-1 {
        fill: #b2b8ba;
        stroke: #b2b8ba;
        stroke-miterlimit: 10;
        stroke-width: .25px;
      }
    </style>
  </defs>
  <g id="Layer_1-2" data-name="Layer 1">
    <g>
      <path class="cls-1" d="M.12,19.93V.41h5.06c1.3,0,2.47.22,3.52.66,1.05.44,1.95,1.06,2.7,1.85.75.79,1.32,1.74,1.73,2.84s.61,2.31.61,3.62v1.61c0,1.31-.2,2.52-.61,3.61-.41,1.09-.98,2.04-1.71,2.83-.73.79-1.61,1.41-2.64,1.84-1.03.44-2.16.66-3.41.66H.12ZM3.92,3.46v13.44h1.45c.71,0,1.34-.13,1.9-.4.56-.27,1.03-.66,1.42-1.17.39-.51.69-1.13.89-1.86s.31-1.56.31-2.49v-1.64c0-.88-.1-1.67-.3-2.39s-.5-1.34-.9-1.86c-.4-.52-.89-.92-1.48-1.21s-1.26-.43-2.03-.43h-1.26Z"/>
      <path class="cls-1" d="M32.16,11.38h-8.02v5.51h9.37v3.04h-13.15V.41h13.11v3.07h-9.33v4.92h8.02v2.98Z"/>
      <path class="cls-1" d="M52.48,11.84h-8.37v8.09h-3.78V.41h13.2v3.07h-9.41v5.31h8.37v3.06Z"/>
      <path class="cls-1" d="M72.04,11.38h-8.02v5.51h9.37v3.04h-13.15V.41h13.11v3.07h-9.33v4.92h8.02v2.98Z"/>
      <path class="cls-1" d="M92.84,19.93h-3.75l-5.43-12.59v12.59h-3.79V.41h3.79l5.39,12.54V.41h3.79v19.52Z"/>
      <path class="cls-1" d="M110.05,14.83c0-.35-.06-.67-.18-.98s-.33-.59-.62-.85c-.29-.26-.67-.5-1.14-.72-.47-.22-1.05-.42-1.75-.61-.85-.23-1.66-.52-2.43-.87-.77-.35-1.46-.77-2.04-1.26-.59-.49-1.06-1.06-1.42-1.72-.35-.65-.53-1.4-.53-2.25s.17-1.57.52-2.24c.35-.67.83-1.24,1.45-1.72.62-.47,1.35-.84,2.19-1.09s1.75-.38,2.74-.38,1.95.15,2.8.44c.84.3,1.57.71,2.18,1.24.61.53,1.08,1.16,1.42,1.9.34.73.51,1.54.51,2.41h-3.67c-.02-.44-.1-.84-.23-1.21-.14-.37-.34-.68-.62-.95-.27-.26-.61-.47-1.02-.62s-.88-.22-1.43-.22c-.5,0-.95.06-1.33.18-.39.12-.72.29-.99.51-.27.22-.47.48-.61.78-.14.3-.21.62-.21.97,0,.37.09.7.27.99.18.3.45.56.8.8.35.24.77.45,1.27.65.5.2,1.06.38,1.68.55.89.26,1.72.58,2.47.95.75.38,1.4.82,1.94,1.33.54.51.96,1.1,1.26,1.76.3.66.45,1.39.45,2.19,0,.86-.17,1.62-.52,2.29-.34.67-.82,1.23-1.43,1.69-.61.46-1.33.81-2.17,1.05s-1.76.36-2.75.36c-.62,0-1.23-.06-1.84-.17-.61-.11-1.2-.28-1.76-.52s-1.08-.52-1.56-.87c-.48-.35-.9-.75-1.25-1.22-.35-.46-.63-.99-.83-1.58s-.3-1.24-.3-1.96h3.7c.02.59.12,1.1.31,1.52.19.42.45.76.78,1.03.34.27.74.46,1.21.59.47.12.99.19,1.55.19.5,0,.95-.06,1.33-.17.39-.12.72-.28.99-.48s.47-.45.62-.74c.14-.29.21-.61.21-.96Z"/>
      <path class="cls-1" d="M131.87,11.38h-8.02v5.51h9.37v3.04h-13.15V.41h13.11v3.07h-9.33v4.92h8.02v2.98Z"/>
      <path class="cls-1" d="M152.99,12.82h-11.17v-3.02h11.17v3.02Z"/>
      <path class="cls-1" d="M175.35,17.65c-.24.29-.57.59-.99.9-.42.3-.92.58-1.5.82s-1.22.45-1.94.6c-.72.15-1.48.23-2.31.23-1.11,0-2.11-.2-3-.59-.89-.39-1.66-.96-2.29-1.7-.63-.74-1.12-1.65-1.47-2.73-.34-1.08-.52-2.3-.52-3.67v-2.66c0-1.37.18-2.59.54-3.67.36-1.08.86-1.99,1.5-2.74s1.39-1.32,2.25-1.72c.86-.39,1.8-.59,2.81-.59,1.1,0,2.06.14,2.88.42.82.28,1.51.68,2.07,1.2.56.52,1,1.16,1.32,1.91.32.75.52,1.6.62,2.53h-3.67c-.13-1-.43-1.75-.91-2.26-.48-.5-1.22-.76-2.22-.76-.48,0-.93.12-1.34.37-.41.25-.77.61-1.07,1.08-.3.47-.55,1.06-.72,1.76-.18.7-.27,1.51-.27,2.43v2.68c0,1.82.31,3.22.91,4.19.6.97,1.52,1.46,2.75,1.47.29,0,.59-.02.87-.07s.55-.11.8-.19c.25-.08.47-.17.66-.27s.34-.21.44-.33v-3.54s-3.22,0-3.22,0v-2.82h6.99v7.7Z"/>
      <path class="cls-1" d="M188.49,12.64h-2.86v7.29h-3.77V.41h6.54c1.08,0,2.06.13,2.94.38.88.25,1.62.63,2.25,1.12.62.49,1.1,1.1,1.44,1.84.33.73.5,1.58.5,2.55,0,.7-.08,1.33-.25,1.88-.17.56-.4,1.06-.71,1.5-.31.44-.68.83-1.11,1.16s-.92.62-1.45.86l4.2,8.06v.17h-4.04l-3.67-7.29ZM185.64,9.58h2.79c1.06,0,1.88-.27,2.46-.81.58-.54.86-1.28.86-2.22s-.28-1.73-.84-2.27c-.56-.54-1.39-.81-2.49-.81h-2.78v6.11Z"/>
      <path class="cls-1" d="M211.41,15.85h-5.86l-1.15,4.08h-3.97L206.83.41h3.42l6.28,19.52h-3.97l-1.14-4.08ZM206.48,12.65h4.05l-2-7.19-2.05,7.19Z"/>
      <path class="cls-1" d="M221.67,19.93V.41h5.06c1.3,0,2.47.22,3.52.66,1.05.44,1.95,1.06,2.7,1.85.75.79,1.32,1.74,1.73,2.84s.61,2.31.61,3.62v1.61c0,1.31-.2,2.52-.61,3.61-.41,1.09-.98,2.04-1.71,2.83-.73.79-1.61,1.41-2.64,1.84-1.03.44-2.16.66-3.41.66h-5.24ZM225.47,3.46v13.44h1.45c.71,0,1.34-.13,1.9-.4.56-.27,1.03-.66,1.42-1.17s.69-1.13.89-1.86.31-1.56.31-2.49v-1.64c0-.88-.1-1.67-.3-2.39s-.5-1.34-.9-1.86c-.4-.52-.89-.92-1.48-1.21s-1.26-.43-2.03-.43h-1.26Z"/>
      <path class="cls-1" d="M253.71,11.38h-8.02v5.51h9.37v3.04h-13.15V.41h13.11v3.07h-9.33v4.92h8.02v2.98Z"/>
      <path class="cls-1" d="M289.53,15.85h-5.86l-1.15,4.08h-3.97l6.4-19.52h3.42l6.28,19.52h-3.97l-1.14-4.08ZM284.59,12.65h4.05l-2-7.19-2.05,7.19Z"/>
      <path class="cls-1" d="M299.79,19.93V.41h5.06c1.3,0,2.47.22,3.52.66,1.05.44,1.95,1.06,2.7,1.85.75.79,1.32,1.74,1.73,2.84s.61,2.31.61,3.62v1.61c0,1.31-.2,2.52-.61,3.61-.41,1.09-.98,2.04-1.71,2.83-.73.79-1.61,1.41-2.64,1.84-1.03.44-2.16.66-3.41.66h-5.24ZM303.58,3.46v13.44h1.45c.71,0,1.34-.13,1.9-.4.56-.27,1.03-.66,1.42-1.17s.69-1.13.89-1.86.31-1.56.31-2.49v-1.64c0-.88-.1-1.67-.3-2.39s-.5-1.34-.9-1.86c-.4-.52-.89-.92-1.48-1.21s-1.26-.43-2.03-.43h-1.26Z"/>
      <path class="cls-1" d="M326.27,14.47l3.69-14.07h4.16l-5.91,19.52h-3.84l-5.9-19.52h4.16l3.65,14.07Z"/>
      <path class="cls-1" d="M349.35,15.85h-5.86l-1.15,4.08h-3.97l6.4-19.52h3.42l6.28,19.52h-3.97l-1.14-4.08ZM344.42,12.65h4.05l-2-7.19-2.05,7.19Z"/>
      <path class="cls-1" d="M372.56,19.93h-3.75l-5.43-12.59v12.59h-3.79V.41h3.79l5.39,12.54V.41h3.79v19.52Z"/>
      <path class="cls-1" d="M393.19,13.82c-.06.98-.27,1.87-.64,2.66-.36.79-.85,1.46-1.46,2.01-.61.55-1.33.98-2.17,1.28-.84.3-1.77.45-2.79.45-1.15,0-2.18-.21-3.07-.64s-1.64-1.02-2.25-1.78c-.61-.76-1.07-1.68-1.39-2.76-.32-1.07-.48-2.25-.48-3.54v-2.63c0-1.3.17-2.48.51-3.55.34-1.07.82-1.99,1.45-2.76.62-.77,1.38-1.37,2.27-1.79s1.89-.64,3-.64,2.03.15,2.86.46c.84.3,1.55.74,2.14,1.3.59.56,1.05,1.25,1.39,2.07s.55,1.73.64,2.75h-3.75c-.04-.58-.12-1.09-.26-1.53-.14-.44-.34-.8-.6-1.09-.26-.29-.59-.51-.99-.66-.4-.15-.87-.22-1.43-.22s-1.09.12-1.52.38c-.43.25-.78.62-1.07,1.1-.28.48-.49,1.07-.62,1.78-.13.7-.2,1.5-.2,2.39v2.66c0,1.92.27,3.34.81,4.26.54.92,1.4,1.38,2.57,1.38.98,0,1.76-.26,2.33-.78.57-.52.89-1.37.95-2.54h3.77Z"/>
      <path class="cls-1" d="M411.59,11.38h-8.02v5.51h9.37v3.04h-13.15V.41h13.11v3.07h-9.33v4.92h8.02v2.98Z"/>
      <path class="cls-1" d="M419.43,19.93V.41h5.06c1.3,0,2.47.22,3.52.66,1.05.44,1.95,1.06,2.7,1.85.75.79,1.32,1.74,1.73,2.84s.61,2.31.61,3.62v1.61c0,1.31-.2,2.52-.61,3.61-.41,1.09-.98,2.04-1.71,2.83-.73.79-1.61,1.41-2.64,1.84-1.03.44-2.16.66-3.41.66h-5.24ZM423.23,3.46v13.44h1.45c.71,0,1.34-.13,1.9-.4.56-.27,1.03-.66,1.42-1.17s.69-1.13.89-1.86.31-1.56.31-2.49v-1.64c0-.88-.1-1.67-.3-2.39s-.5-1.34-.9-1.86-.89-.92-1.47-1.21c-.59-.29-1.26-.43-2.03-.43h-1.26Z"/>
      <path class="cls-1" d="M462.37.41l1.85,7.33,2.11-7.33h4.68v19.52h-3.46v-5.78l.16-9.13-2.56,8.47h-1.86l-2.29-8.11.16,8.77v5.78h-3.46V.41h4.68Z"/>
      <path class="cls-1" d="M487.29,15.85h-5.86l-1.15,4.08h-3.97l6.4-19.52h3.42l6.28,19.52h-3.97l-1.14-4.08ZM482.35,12.65h4.05l-2-7.19-2.05,7.19Z"/>
      <path class="cls-1" d="M510.5,19.93h-3.75l-5.43-12.59v12.59h-3.79V.41h3.79l5.39,12.54V.41h3.79v19.52Z"/>
      <path class="cls-1" d="M530.58.41v12.94c.01,1.09-.14,2.06-.44,2.91-.3.85-.73,1.57-1.3,2.15-.57.59-1.26,1.03-2.08,1.33-.82.3-1.75.46-2.8.46-.98,0-1.87-.15-2.66-.46s-1.47-.75-2.03-1.33c-.56-.58-1-1.3-1.31-2.15-.31-.85-.46-1.83-.46-2.92V.41h3.78v12.94c.02,1.26.25,2.21.7,2.86.45.64,1.11.96,1.98.96.92,0,1.62-.32,2.11-.96s.74-1.6.75-2.86V.41h3.75Z"/>
      <path class="cls-1" d="M549.9,11.84h-8.37v8.09h-3.78V.41h13.2v3.07h-9.41v5.31h8.37v3.06Z"/>
      <path class="cls-1" d="M567.05,15.85h-5.86l-1.15,4.08h-3.97l6.4-19.52h3.42l6.28,19.52h-3.97l-1.14-4.08ZM562.12,12.65h4.05l-2-7.19-2.05,7.19Z"/>
      <path class="cls-1" d="M590.95,13.82c-.06.98-.27,1.87-.64,2.66-.36.79-.85,1.46-1.46,2.01-.61.55-1.33.98-2.17,1.28-.84.3-1.77.45-2.79.45-1.15,0-2.18-.21-3.07-.64s-1.64-1.02-2.25-1.78c-.61-.76-1.07-1.68-1.39-2.76-.32-1.07-.48-2.25-.48-3.54v-2.63c0-1.3.17-2.48.51-3.55.34-1.07.82-1.99,1.45-2.76.62-.77,1.38-1.37,2.27-1.79s1.89-.64,3-.64,2.03.15,2.86.46c.84.3,1.55.74,2.14,1.3.59.56,1.05,1.25,1.39,2.07s.55,1.73.64,2.75h-3.75c-.04-.58-.12-1.09-.26-1.53-.14-.44-.34-.8-.6-1.09-.26-.29-.59-.51-.99-.66-.4-.15-.87-.22-1.43-.22s-1.09.12-1.52.38c-.43.25-.78.62-1.07,1.1-.28.48-.49,1.07-.62,1.78-.13.7-.2,1.5-.2,2.39v2.66c0,1.92.27,3.34.81,4.26.54.92,1.4,1.38,2.57,1.38.98,0,1.76-.26,2.33-.78.57-.52.89-1.37.95-2.54h3.77Z"/>
      <path class="cls-1" d="M611.68,3.48h-6.02v16.45h-3.78V3.48h-5.94V.41h15.74v3.07Z"/>
      <path class="cls-1" d="M630.28.41v12.94c.01,1.09-.14,2.06-.44,2.91-.3.85-.73,1.57-1.3,2.15-.57.59-1.26,1.03-2.08,1.33-.82.3-1.75.46-2.8.46-.98,0-1.87-.15-2.66-.46s-1.47-.75-2.03-1.33c-.56-.58-1-1.3-1.31-2.15-.31-.85-.46-1.83-.46-2.92V.41h3.78v12.94c.02,1.26.25,2.21.7,2.86.45.64,1.11.96,1.98.96.92,0,1.62-.32,2.11-.96s.74-1.6.75-2.86V.41h3.75Z"/>
      <path class="cls-1" d="M643.84,12.64h-2.86v7.29h-3.77V.41h6.54c1.08,0,2.06.13,2.94.38s1.62.63,2.25,1.12,1.1,1.1,1.43,1.84c.34.73.5,1.58.5,2.55,0,.7-.08,1.33-.25,1.88-.17.56-.4,1.06-.71,1.5-.31.44-.68.83-1.11,1.16s-.92.62-1.46.86l4.2,8.06v.17h-4.04l-3.67-7.29ZM640.98,9.58h2.79c1.06,0,1.88-.27,2.46-.81.58-.54.87-1.28.87-2.22s-.28-1.73-.84-2.27c-.56-.54-1.39-.81-2.49-.81h-2.78v6.11Z"/>
      <path class="cls-1" d="M657.98.41h11.29v3.04h-3.81v13.45h3.81v3.03h-11.29v-3.03h3.71V3.45h-3.71V.41Z"/>
      <path class="cls-1" d="M689.97,19.93h-3.75l-5.43-12.59v12.59h-3.79V.41h3.79l5.39,12.54V.41h3.79v19.52Z"/>
      <path class="cls-1" d="M710.46,17.65c-.24.29-.57.59-.99.9s-.92.58-1.5.82c-.58.25-1.22.45-1.94.6-.72.15-1.48.23-2.31.23-1.11,0-2.11-.2-3-.59-.89-.39-1.66-.96-2.29-1.7-.63-.74-1.12-1.65-1.47-2.73-.34-1.08-.52-2.3-.52-3.67v-2.66c0-1.37.18-2.59.54-3.67s.86-1.99,1.5-2.74c.64-.75,1.39-1.32,2.25-1.72.86-.39,1.8-.59,2.81-.59,1.1,0,2.06.14,2.88.42.82.28,1.51.68,2.07,1.2.56.52,1,1.16,1.32,1.91s.52,1.6.62,2.53h-3.67c-.12-1-.43-1.75-.91-2.26s-1.22-.76-2.22-.76c-.48,0-.93.12-1.34.37s-.77.61-1.07,1.08c-.3.47-.55,1.06-.72,1.76s-.27,1.51-.27,2.43v2.68c0,1.82.31,3.22.91,4.19.6.97,1.52,1.46,2.75,1.47.29,0,.59-.02.87-.07s.55-.11.8-.19c.25-.08.47-.17.66-.27.19-.1.34-.21.44-.33v-3.54s-3.22,0-3.22,0v-2.82h6.99v7.7Z"/>
    </g>
  </g>
</svg>