<?xml version="1.0" encoding="UTF-8"?>
<svg id="Layer_2" data-name="Layer 2" xmlns="http://www.w3.org/2000/svg" viewBox="0 0 708.04 131.86">
  <defs>
    <style>
      .cls-1 {
        fill: #fff;
      }
    </style>
  </defs>
  <g id="Layer_1-2" data-name="Layer 1">
    <g>
      <g>
        <path class="cls-1" d="M408.71.05l17.11,48.97L445.13.05h22.49v63.48h-13.93V13.16l-.35,1.29s-.02.09-.04.13l-19.32,48.89-14.74.11-21.29-50.22v50.18h-13.3V.05h24.07Z"/>
        <path class="cls-1" d="M358.99.05c4.97,0,9.69,2.47,12.27,6.72.6.99,1.04,1.96,1.21,2.79.68,3.18.57,21.15-.29,24.19-1.42,5.04-6.02,8.04-10.97,9.53l12.66,20.26h-14.25l-12.98-20.56h-18.37v20.56h-13.93V.05h44.65ZM327.63,30.28h28.82c3.41-.52,2.9-16.93,0-16.93h-28.82v16.93Z"/>
        <polygon class="cls-1" points="522.72 .05 553.1 42.43 554.39 44.19 554.39 .05 567.06 .05 567.06 63.54 552.18 63.54 519.89 20.2 518.92 18.79 518.92 63.54 506.26 63.54 506.26 .05 522.72 .05"/>
        <rect class="cls-1" x="480.29" y=".05" width="12.67" height="63.48"/>
        <polygon class="cls-1" points="244.02 .05 186.38 .05 186.38 13.35 208.55 13.35 208.55 63.54 221.86 63.54 221.86 13.35 244.02 13.35 244.02 .05"/>
        <polygon class="cls-1" points="302.93 13.35 302.93 .05 264.93 .05 251.63 .05 251.63 13.35 251.63 25.14 251.63 38.44 251.63 50.23 251.63 63.54 264.93 63.54 302.93 63.54 302.93 50.23 264.93 50.23 264.93 38.44 299.13 38.44 299.13 25.14 264.93 25.14 264.93 13.35 302.93 13.35"/>
        <path class="cls-1" d="M704.51.33h-43.39s-3.13.32-6.21,3.96c-2.27,2.69-3.51,6.09-3.74,9.6s-.47,9.43.13,13.95c0,0,1,10.28,14.19,10.82h26.99s3.44,5.47,0,11.85h-40.54v13.3h40.55s13.85,1.12,15.07-12.36c.04-.49.08-.98.15-1.46.52-3.68,2.51-23.59-15.22-24.41h-26.98s-3.62-4.71,0-12.13h39.01V.33Z"/>
        <path class="cls-1" d="M626.62,48.47h0c-.77,1.19-2.1,1.9-3.51,1.9h-26.52c-1.42,0-2.75-.72-3.52-1.91l-.03-.04V.05h-13.3v53.49s.23,11.17,30.09,10.58c0,0,23.91,1.4,29.56-9.39.37-.7.53-1.5.53-2.29V.05h-13.3v48.42"/>
      </g>
      <g>
        <polygon class="cls-1" points="0 0 168.62 0 159.37 16.47 9.52 16.53 0 0"/>
        <polygon class="cls-1" points="155.72 23 13.27 23 23 39.68 59.57 39.66 59.57 131.86 79.55 131.86 79.55 39.66 145.9 39.63 155.72 23"/>
        <rect class="cls-1" x="86.71" y="45.15" width="19.98" height="86.71"/>
      </g>
      <g>
        <path class="cls-1" d="M506.3,87.59c3.45,0,6.72,1.8,8.38,4.83.28.52.48,1.01.58,1.45.45,2.1.38,13.97-.19,15.98-.94,3.33-4,5.31-7.28,6.29l8.41,13.38h-9.46l-8.62-13.58h-12.19v13.58h-9.25v-41.92h29.64ZM485.49,107.55h19.13c2.76-1.8,1.93-11.18,0-11.18h-19.13v11.18Z"/>
        <path class="cls-1" d="M247.4,87.59l20.94,29.32v-29.32h8.94v41.58h-11.17c-5.98-9.63-13.18-18.53-19.82-27.72l-.28.27v27.46h-9.49v-41.58h10.89Z"/>
        <rect class="cls-1" x="525.64" y="87.59" width="9.01" height="41.95"/>
        <rect class="cls-1" x="216.96" y="87.59" width="9.01" height="41.58"/>
        <polygon class="cls-1" points="467.81 87.59 430.18 87.59 430.18 96.36 444.65 96.36 444.65 129.46 453.34 129.46 453.34 96.36 467.81 96.36 467.81 87.59"/>
        <path class="cls-1" d="M420.42,87.59h-28.36s-2.05.21-4.06,2.62c-1.48,1.78-2.29,4.02-2.45,6.34-.16,2.4-.3,6.23.09,9.21,0,0,.65,6.79,9.27,7.15h17.64s2.25,3.61,0,7.83h-26.5v8.79h26.51s9.05.74,9.85-8.16c.03-.32.05-.64.1-.96.34-2.43,1.64-15.58-9.95-16.12h-17.63s-2.36-3.11,0-8.01h25.5v-8.67Z"/>
        <path class="cls-1" d="M676.71,87.41h-28.36s-2.05.21-4.06,2.62c-1.48,1.78-2.29,4.02-2.45,6.34-.16,2.4-.3,6.23.09,9.21,0,0,.65,6.79,9.27,7.15h17.64s2.25,3.61,0,7.83h-26.5v8.79h26.51s9.05.74,9.85-8.16c.03-.32.05-.64.1-.96.34-2.43,1.64-15.58-9.95-16.12h-17.63s-2.36-3.11,0-8.01h25.5v-8.67Z"/>
        <path class="cls-1" d="M367.5,119.2h0c-.52.77-1.41,1.24-2.37,1.24h-17.88c-.96,0-1.85-.47-2.37-1.25l-.02-.03v-31.58h-8.96v34.93s.16,7.29,20.28,6.91c0,0,16.11.92,19.92-6.13.25-.46.36-.98.36-1.5v-34.21h-8.96v31.62"/>
        <polygon class="cls-1" points="610.25 120.1 610.25 87.95 600.81 87.95 600.81 120.1 600.81 129.54 610.25 129.54 633.2 129.54 633.2 120.1 610.25 120.1"/>
        <path class="cls-1" d="M574.14,87.59h-14.65l-15.25,41.95h10.05l2.87-7.67h20.64l2.73,7.67h10.61l-17.01-41.95ZM560.72,113.54l6.71-18.73,7.24,18.73h-13.96Z"/>
        <path class="cls-1" d="M318.2,87.59c3.02.48,7.24,4.36,8.13,7.16,1,3.16,1.03,22.35.39,26.03-.5,2.84-4.97,8.39-7.97,8.39h-32.11v-41.58h31.55ZM295.58,120.64h19.12c.46,0,.91-.13,1.3-.39h.02c.67-.45,1.07-1.19,1.07-1.99v-19.78c0-.81-.41-1.56-1.09-1.99h0c-.38-.24-.82-.37-1.27-.37h-19.14v24.52Z"/>
      </g>
    </g>
  </g>
</svg>