<?xml version="1.0" encoding="UTF-8"?>
<svg id="Layer_2" data-name="Layer 2" xmlns="http://www.w3.org/2000/svg" viewBox="0 0 612.6 150.95">
  <defs>
    <style>
      .cls-1 {
        fill: #00e8dd;
      }
    </style>
  </defs>
  <g id="Layer_1-2" data-name="Layer 1">
    <g>
      <path class="cls-1" d="M261.09,0l20.09,57.51L303.86,0h26.41v74.55h-16.36V15.39l-.41,1.52c-.01.05-.03.1-.05.15l-22.69,57.41-17.31.13-25-58.98v58.93h-15.62V0h28.27Z"/>
      <path class="cls-1" d="M202.69,0C208.52,0,214.07,2.91,217.1,7.89c.71,1.17,1.22,2.3,1.42,3.28.79,3.73.67,24.83-.34,28.41-1.66,5.92-7.07,9.44-12.88,11.19l14.87,23.79h-16.74l-15.25-24.14h-21.57v24.14h-16.36V0h52.44ZM165.88,35.5h33.84c4.01-.62,3.41-19.88,0-19.88h-33.84v19.88Z"/>
      <polygon class="cls-1" points="394.98 0 430.65 49.76 432.17 51.83 432.17 0 447.04 0 447.04 74.55 429.56 74.55 391.65 23.66 390.51 22.01 390.51 74.55 375.64 74.55 375.64 0 394.98 0"/>
      <rect class="cls-1" x="345.14" y="0" width="14.88" height="74.55"/>
      <polygon class="cls-1" points="67.69 0 0 0 0 15.62 26.03 15.62 26.03 74.55 41.65 74.55 41.65 15.62 67.69 15.62 67.69 0"/>
      <polygon class="cls-1" points="136.87 15.62 136.87 0 92.24 0 76.61 0 76.61 15.62 76.61 29.47 76.61 45.09 76.61 58.93 76.61 74.55 92.24 74.55 136.87 74.55 136.87 58.93 92.24 58.93 92.24 45.09 132.4 45.09 132.4 29.47 92.24 29.47 92.24 15.62 136.87 15.62"/>
      <path class="cls-1" d="M608.45.33h-50.95s-3.68.38-7.29,4.66c-2.67,3.16-4.12,7.15-4.4,11.28-.28,4.26-.55,11.08.15,16.38,0,0,1.17,12.07,16.66,12.7h31.69s4.04,6.42,0,13.92h-47.61v15.62h47.62s16.26,1.31,17.69-14.51c.05-.57.1-1.15.18-1.72.61-4.32,2.94-27.7-17.87-28.66h-31.68s-4.25-5.54,0-14.24h45.81l-.02-15.42Z"/>
      <path class="cls-1" d="M516.98,56.86h0c-.91,1.39-2.46,2.23-4.12,2.23h-31.15c-1.67,0-3.22-.85-4.13-2.25l-.03-.05V0h-15.62v62.82s.27,13.12,35.33,12.43c0,0,28.07,1.65,34.71-11.03.43-.83.62-1.76.62-2.69V0h-15.62v56.86"/>
    </g>
    <g>
      <path class="cls-1" d="M371.47,104.73c3.81,0,7.41,1.98,9.23,5.32.31.57.53,1.12.64,1.6.49,2.31.41,15.39-.21,17.61-1.04,3.67-4.41,5.85-8.02,6.93l9.27,14.74h-10.43l-9.5-14.96h-13.44v14.96h-10.19v-46.2h32.66ZM348.54,126.73h21.08c3.04-1.98,2.13-12.32,0-12.32h-21.09v12.32Z"/>
      <path class="cls-1" d="M86.16,104.73l23.08,32.31v-32.31h9.85v45.82h-12.31c-6.59-10.61-14.52-20.42-21.85-30.55l-.31.3v30.26h-10.46v-45.82h12Z"/>
      <rect class="cls-1" x="392.79" y="104.73" width="9.93" height="46.23"/>
      <rect class="cls-1" x="52.62" y="104.73" width="9.93" height="45.82"/>
      <polygon class="cls-1" points="329.06 104.73 287.58 104.73 287.58 114.4 303.54 114.4 303.54 150.87 313.11 150.87 313.11 114.4 329.06 114.4 329.06 104.73"/>
      <path class="cls-1" d="M276.83,104.73h-31.25s-2.26.23-4.47,2.89c-1.63,1.96-2.53,4.43-2.7,6.99-.17,2.64-.34,6.87.09,10.15,0,0,.72,7.48,10.22,7.87h19.44s2.48,3.98,0,8.63h-29.2v9.68h29.21s9.97.81,10.85-8.99c.03-.36.06-.71.11-1.06.37-2.68,1.81-17.17-10.96-17.77h-19.43s-2.61-3.43,0-8.83h28.1v-9.56Z"/>
      <path class="cls-1" d="M559.27,104.52h-31.25s-2.26.23-4.47,2.89c-1.63,1.96-2.53,4.43-2.7,6.99-.17,2.64-.34,6.87.09,10.15,0,0,.72,7.48,10.22,7.87h19.44s2.48,3.98,0,8.63h-29.2v9.68h29.21s9.97.81,10.85-8.99c.03-.36.06-.71.11-1.06.37-2.68,1.81-17.17-10.96-17.77h-19.43s-2.61-3.43,0-8.83h28.1v-9.56Z"/>
      <path class="cls-1" d="M218.51,139.57h0c-.57.85-1.56,1.37-2.61,1.37h-19.7c-1.06,0-2.04-.52-2.61-1.38l-.02-.03v-34.8h-9.88v38.49s.17,8.04,22.34,7.61c0,0,17.75,1.01,21.95-6.76.27-.51.39-1.08.39-1.65v-37.7h-9.88v34.84"/>
      <polygon class="cls-1" points="486.02 140.55 486.02 105.13 475.62 105.13 475.62 140.55 475.62 150.95 486.02 150.95 511.32 150.95 511.32 140.55 486.02 140.55"/>
      <path class="cls-1" d="M446.23,104.73h-16.15l-16.81,46.23h11.08l3.16-8.45h22.75l3.01,8.45h11.69l-18.75-46.23ZM431.44,133.33l7.39-20.64,7.98,20.64h-15.38Z"/>
      <path class="cls-1" d="M164.18,104.73c3.33.53,7.98,4.8,8.96,7.9,1.11,3.48,1.14,24.63.43,28.68-.55,3.13-5.48,9.25-8.78,9.25h-35.39v-45.82h34.77ZM139.26,141.15h21.07c.51,0,1-.15,1.43-.43h.02c.73-.49,1.18-1.31,1.18-2.19v-21.8c0-.89-.45-1.72-1.21-2.2h0c-.42-.27-.9-.41-1.4-.41h-21.09v27.02Z"/>
    </g>
  </g>
</svg>