<?xml version="1.0" encoding="UTF-8"?>
<svg id="Layer_2" data-name="Layer 2" xmlns="http://www.w3.org/2000/svg" viewBox="0 0 681.71 169.21">
  <defs>
    <style>
      .cls-1 {
        fill: #fff;
      }
    </style>
  </defs>
  <g id="Layer_1-2" data-name="Layer 1">
    <g>
      <g>
        <path class="cls-1" d="M290.54,0l22.36,64L338.13,0h29.39v82.96h-18.21V17.12l-.45,1.69c-.01.06-.03.11-.05.17l-25.25,63.89-19.26.14-27.82-65.63v65.58h-17.38V0h31.45Z"/>
        <path class="cls-1" d="M225.56,0C232.05,0,238.21,3.23,241.59,8.78c.79,1.3,1.35,2.56,1.58,3.64.88,4.15.74,27.64-.38,31.61-1.85,6.59-7.87,10.51-14.33,12.45l16.55,26.47h-18.62l-16.97-26.86h-24v26.86h-18.21V0h58.35ZM184.59,39.51h37.66c4.46-.69,3.79-22.12,0-22.12h-37.66v22.12Z"/>
        <polygon class="cls-1" points="439.53 0 479.23 55.38 480.92 57.68 480.92 0 497.48 0 497.48 82.96 478.02 82.96 435.83 26.33 434.57 24.49 434.57 82.96 418.01 82.96 418.01 0 439.53 0"/>
        <rect class="cls-1" x="384.07" y="0" width="16.55" height="82.96"/>
        <polygon class="cls-1" points="75.32 0 0 0 0 17.38 28.97 17.38 28.97 82.96 46.35 82.96 46.35 17.38 75.32 17.38 75.32 0"/>
        <polygon class="cls-1" points="152.31 17.38 152.31 0 102.64 0 85.26 0 85.26 17.38 85.26 32.79 85.26 50.17 85.26 65.58 85.26 82.96 102.64 82.96 152.31 82.96 152.31 65.58 102.64 65.58 102.64 50.17 147.34 50.17 147.34 32.79 102.64 32.79 102.64 17.38 152.31 17.38"/>
        <path class="cls-1" d="M677.09.37h-56.7s-4.09.42-8.11,5.18c-2.97,3.51-4.59,7.96-4.89,12.55s-.61,12.33.17,18.22c0,0,1.31,13.43,18.54,14.14h35.27s4.5,7.15,0,15.49h-52.98v17.38h53s18.1,1.46,19.69-16.15c.06-.64.11-1.27.2-1.91.68-4.8,3.28-30.82-19.89-31.9h-35.25s-4.73-6.16,0-15.85h50.98l-.02-17.16Z"/>
        <path class="cls-1" d="M575.3,63.28h0c-1.01,1.55-2.74,2.49-4.59,2.49h-34.66c-1.86,0-3.59-.94-4.6-2.5l-.04-.06V0h-17.38v69.9s.3,14.6,39.32,13.83c0,0,31.24,1.83,38.63-12.27.48-.92.69-1.96.69-3V0h-17.38v63.28"/>
      </g>
      <g>
        <path class="cls-1" d="M418.06,114.39c4.51,0,8.78,2.35,10.95,6.31.37.68.63,1.32.76,1.9.59,2.74.49,18.25-.25,20.88-1.23,4.35-5.23,6.94-9.51,8.22l10.99,17.48h-12.36l-11.26-17.74h-15.94v17.74h-12.09v-54.79h38.73ZM390.87,140.48h25c3.6-2.35,2.52-14.61,0-14.61h-25.01v14.61Z"/>
        <path class="cls-1" d="M79.74,114.39l27.37,38.32v-38.32h11.68v54.34h-14.6c-7.82-12.58-17.22-24.21-25.91-36.23l-.37.35v35.88h-12.41v-54.34h14.23Z"/>
        <rect class="cls-1" x="443.34" y="114.39" width="11.78" height="54.82"/>
        <rect class="cls-1" x="39.96" y="114.39" width="11.78" height="54.34"/>
        <polygon class="cls-1" points="367.77 114.39 318.59 114.39 318.59 125.86 337.51 125.86 337.51 169.12 348.86 169.12 348.86 125.86 367.77 125.86 367.77 114.39"/>
        <path class="cls-1" d="M305.84,114.39h-37.06s-2.67.28-5.3,3.42c-1.94,2.32-3,5.26-3.2,8.29-.21,3.13-.4,8.14.11,12.04,0,0,.85,8.87,12.12,9.34h23.05s2.94,4.72,0,10.23h-34.63v11.48h34.64s11.83.97,12.87-10.66c.04-.42.07-.84.13-1.26.44-3.17,2.14-20.36-13-21.07h-23.04s-3.09-4.07,0-10.47h33.32v-11.34Z"/>
        <path class="cls-1" d="M640.77,114.15h-37.06s-2.67.28-5.3,3.42c-1.94,2.32-3,5.26-3.2,8.29-.21,3.13-.4,8.14.11,12.04,0,0,.85,8.87,12.12,9.34h23.05s2.94,4.72,0,10.23h-34.63v11.48h34.64s11.83.97,12.87-10.66c.04-.42.07-.84.13-1.26.44-3.17,2.14-20.36-13-21.07h-23.04s-3.09-4.07,0-10.47h33.32v-11.34Z"/>
        <path class="cls-1" d="M236.68,155.71h0c-.68,1.01-1.85,1.62-3.09,1.62h-23.36c-1.25,0-2.42-.61-3.1-1.63l-.02-.04v-41.27h-11.71v45.64s.2,9.53,26.5,9.03c0,0,21.05,1.2,26.03-8.01.32-.6.47-1.28.47-1.96v-44.7h-11.71v41.32"/>
        <polygon class="cls-1" points="553.91 156.88 553.91 114.87 541.58 114.87 541.58 156.88 541.58 169.21 553.91 169.21 583.91 169.21 583.91 156.88 553.91 156.88"/>
        <path class="cls-1" d="M506.72,114.39h-19.15l-19.93,54.82h13.14l3.75-10.02h26.98l3.57,10.02h13.87l-22.23-54.82ZM489.18,148.31l8.77-24.47,9.47,24.47h-18.24Z"/>
        <path class="cls-1" d="M172.26,114.39c3.95.63,9.46,5.69,10.63,9.36,1.31,4.12,1.35,29.21.51,34.01-.65,3.71-6.49,10.96-10.41,10.96h-41.97v-54.34h41.24ZM142.7,157.59h24.99c.6,0,1.19-.18,1.69-.51h.02c.87-.59,1.39-1.56,1.39-2.6v-25.85c0-1.06-.54-2.04-1.43-2.61h0c-.5-.32-1.07-.48-1.66-.48h-25.01v32.05Z"/>
      </g>
    </g>
  </g>
</svg>